<?xml version="1.0" encoding="UTF-8"?><svg id="b" xmlns="http://www.w3.org/2000/svg" width="10.60853mm" height="11.69473mm" viewBox="0 0 30.07142 33.1504"><defs><style>.d{fill:#b6cf4b;}</style></defs><g id="c"><path class="d" d="M26.33345,3.75633c-1.02923-.7201-.94914-2.42963-.89935-2.93834.02082-.20815-.04782-.41687-.1879-.57158-.14177-.1564-.34542-.24641-.55808-.24641h-3.0908c-.40843,0-.77748.20647-.98676.55358-.45583.7566-1.77598,2.50951-4.1964,2.52541H6.63616C2.97716,3.07898,0,6.0612,0,9.72695v16.78673c0,2.92259,1.95664,5.53801,4.74421,6.35543.58283.18678,1.2191.28129,1.89195.28129h16.78729c3.66575,0,6.64797-2.97716,6.64797-6.63672V9.72695c0-2.52428-1.46671-4.85806-3.73797-5.97063ZM21.86031,1.15215c.44621,0,1.35783,0,1.92026,0,.25962,0,.47262.2024.48363.46179.0412.96983.31539,2.34415,1.43431,3.10721l.08045.04163c1.9077.91025,3.1403,2.85902,3.1403,4.96418l-.00325.01662c-.14765.75522-1.00776,1.12467-1.65695.71152-.37266-.23716-.78271-.51422-1.17687-.81308-1.9949-1.52233-2.84383-2.66436-3.52567-3.58249-.6509-.87593-1.21348-1.63316-2.43877-2.31725h0c-.30852-.17198-.35077-.60418-.07576-.82584.68417-.55145,1.1525-1.15364,1.41538-1.54538.09096-.13554.23971-.21889.40294-.21889ZM1.15216,26.51369V9.72695c0-3.0306,2.46015-5.49581,5.484-5.49581h.08662c.73535,0,1.038.92814.45425,1.37532-.15697.12025-.31018.24337-.45929.36923-3.43116,2.86577-4.10344,5.49638-4.06293,7.19986.02925,1.10434.3443,1.77662.67791,2.48771.30885.65934.6284,1.34062.80786,2.53778.22784,1.54934-.00169,2.47028-.29254,3.63706-.18565.74598-.39662,1.59153-.51026,2.74875-.15046,1.62395-.13045,3.12347.05178,4.46504.10025.73804-.87081,1.12704-1.29016.51149-.60024-.88107-.94723-1.93602-.94723-3.0497ZM6.62238,31.99823c-.78022-.0011-1.46845-.51075-1.69488-1.25739-.49809-1.64243-.65674-3.73595-.43983-6.07916.10183-1.03514.29367-1.80306.47819-2.5451.29592-1.1876.57552-2.30882.31448-4.08487-.20422-1.36481-.57608-2.15804-.90462-2.85733-.30492-.6509-.54626-1.1651-.56877-2.02753-.03488-1.4492.57045-3.71582,3.65112-6.28848.11808-.09962.23894-.1974.36241-.29323,2.00404-1.55548,4.50363-2.33401,7.04049-2.33401h1.52181v.00281c.01062,0,.01948-.00274.0301-.00281l1.84951-.00003c.05447,0,.10947.0087.16112.02602.40973.13748.79157.30048,1.13277.49101,1.00926.5637,1.45651,1.16566,2.07535,1.99884.72516.97551,1.62753,2.19011,3.75295,3.81202,1.27311.96538,2.06409,1.38169,2.69924,1.71586l.00939.00494c.50798.26729.82604.79404.82604,1.36805v10.7891c0,.77514-.61523,1.56214-1.36882,1.74364-3.16104.76129-6.13398,3.25054-7.07924,5.52935-.06664.16065-.27218.28831-.4461.28831H6.63616s-.01378-.00003-.01378-.00003ZM23.42345,31.99825h0c-.83621,0-1.2962-.9928-.7375-1.61497,1.10959-1.23567,2.7658-2.35662,4.51097-2.91559.81865-.26221,1.54705.57247,1.18551,1.35236-.86856,1.8736-2.75614,3.1782-4.95897,3.1782Z"/><path class="d" d="M20.03844,26.195c1.33387-.91081,2.36451-1.17185,3.2742-1.40194,1.06215-.26891,2.06522-.52263,3.05536-1.70686.95075-1.13528,1.51896-2.68124,1.5589-4.25589l-.00056-.46694c-.0315-.71504-.1699-1.37775-.41406-1.97408-.24866-.59127-.61096-1.0914-2.84833-3.11499-2.62273-2.38645-3.93973-3.58418-5.30848-4.38079-2.19968-1.28661-3.78164-2.21655-5.98863-2.07928-3.35296.20928-6.65585,2.85677-6.79593,5.44743-.04613.82361.22841,1.33331.54682,1.92401.28748.53389.61377,1.13922.86412,2.24018.34148,1.48802.2481,2.65199.14008,4.00048-.19128,2.44327-.67115,3.89472-1.02164,4.95461-.37749,1.14203-.65034,1.96733-.18453,3.02329.27285.61658.73529,1.16903,1.37381,1.64104.91644.67847,2.09054,1.03739,3.39515,1.03739h1.0689c1.98421,0,3.84465-.96819,4.97656-2.58954.50069-.71729,1.12684-1.49195,2.30825-2.29813ZM16.78505,27.83378c-.91588,1.31305-2.42302,2.09672-4.03143,2.09672h-1.0689c-.73641,0-1.80418-.14064-2.70993-.81124-.47594-.35217-.81405-.74935-1.00476-1.18085-.27623-.62502-.13952-1.0959.22391-2.19574.36905-1.11559.87424-2.64411,1.07677-5.22521.11083-1.38225.21547-2.68799-.1654-4.34816-.28523-1.2523-.68297-1.99096-.97326-2.53047-.28298-.52488-.43881-.81405-.41124-1.31418.10801-1.98983,2.99347-4.19064,5.71803-4.36053.11702-.00731.23234-.01069.34598-.01069,1.68098,0,3.02216.78423,4.99006,1.93526,1.26467.73585,2.55072,1.90601,5.11495,4.23845,2.29363,2.07478,2.42921,2.39714,2.55804,2.70374.18903.46131.3021,1.00926.32686,1.55778v.427c-.03319,1.30462-.50351,2.59179-1.28999,3.5313-.75104.89787-1.46608,1.07902-2.45509,1.32937-.95244.24078-2.13779.5412-3.64043,1.56678-1.33499.91081-2.04047,1.78337-2.60417,2.59067Z"/><path class="d" d="M21.77589,20.0869c.84893-.43206,1.58253-.80505,1.52346-1.61685-.05007-.69872-.64528-.95751-1.27536-1.23148-.42081-.1834-.94457-.41068-1.53809-.8163-1.18366-.80786-1.70292-1.6821-2.16142-2.45284-.50238-.84612-.97776-1.64497-2.12373-1.96846-1.74286-.49451-3.95998.4495-4.39148,1.86719-.20028.65765.06132,1.13641.33755,1.64272.20197.36961.45287.82924.63009,1.52908h.00056c.37018,1.4582.11589,2.72625-.00675,3.33664-.2436,1.21517-.69084,1.99602-1.05033,2.6233-.38537.67228-.74935,1.30799-.3713,2.00165.38143.69872,1.32037,1.01376,2.33582,1.01376.63909,0,1.30912-.12489,1.88801-.35836,1.09477-.4405,1.5364-1.14259,2.0039-1.88632.36849-.58621.78648-1.25061,1.6326-2.01121.94288-.84724,1.843-1.30518,2.56648-1.67254ZM18.43925,20.90208c-.96594.86862-1.4492,1.63766-1.83794,2.25537-.44275.70435-.70997,1.12965-1.45876,1.43063-1.20391.48382-2.56535.25822-2.78194-.13839-.06638-.12208.09339-.41293.35949-.87706.37974-.66272.89956-1.57015,1.18029-2.96984.13896-.69309.42868-2.13442-.00675-3.84634-.21322-.84105-.51476-1.39407-.73529-1.79743-.2481-.454-.30042-.57833-.24697-.75498.20478-.67003,1.72317-1.44526,2.97659-1.09477.67228.19015.95807.62784,1.44639,1.44864.49338.83093,1.10771,1.86438,2.50178,2.81626.68353.46638,1.28718.7291,1.72824.92094.24247.10576.54964.24697.59464.21659-.07032.1232-.53332.35892-.90519.54795-.7426.37749-1.75918.89393-2.81457,1.84244Z"/></g></svg>