<?xml version="1.0" encoding="UTF-8"?><svg id="b" xmlns="http://www.w3.org/2000/svg" width="52.7865mm" height="11.69473mm" viewBox="0 0 149.63102 33.1504"><defs><style>.d{fill:#090c0b;}.e{fill:#b6cf4b;}</style></defs><g id="c"><path class="d" d="M42.33863,9.06871h-1.9002l-3.32813,8.33778h2.30324l.50672-1.38196h2.86752l.50672,1.38196h2.33775l-3.29361-8.33778ZM42.13134,14.19343c-.04604.05757-.12666.04611-.17277,0l-.49519-.56428c-.04604-.05757-.12666-.05757-.1727,0l-.49526.56428c-.04604.04611-.12666.05757-.1727,0-.41457-.50672-.38005-1.24377.09215-1.7159l.5297-.54123c.06909-.06916.1843-.06916.26492,0l.5297.54123c.4722.47213.50672,1.20919.09215,1.7159Z"/><path class="d" d="M54.01606,11.55625c-.20728-.50672-.49519-.94434-.87524-1.31286s-.8292-.65643-1.34737-.86371c-.51824-.20728-1.09405-.31096-1.7159-.31096h-3.59312v8.33778h3.59312c.62185,0,1.19766-.10368,1.7159-.31096.51817-.20728.96732-.49519,1.34737-.86371s.66796-.80615.87524-1.32439c.20728-.50672.31089-1.071.31089-1.66986,0-.61032-.10361-1.1746-.31089-1.68132ZM51.80497,14.11281c-.09215.25339-.23034.48373-.39158.66796-.17277.18423-.36853.33394-.59886.43762-.2418.10361-.50672.14972-.79462.14972h-1.1746v-4.261h1.1746c.2879,0,.55282.05757.78309.16124.23034.09215.42616.2418.59886.42609.17277.18423.31096.41457.40311.67942.09208.25339.13819.55282.13819.86371,0,.32249-.04611.61039-.13819.87524Z"/><path class="d" d="M59.65895,9.06871h-1.90013l-3.3282,8.33778h2.30324l.50672-1.38196h2.86752l.50672,1.38196h2.33782l-3.29368-8.33778ZM57.86243,14.35468l.29943-.81767c.08062-.21881.14972-.42609.21881-.61032.06909-.1843.12666-.357.1843-.51824.03451-.12666.08055-.25339.11513-.38005.03458.12666.06909.25339.11513.38005.05764.17277.1152.34547.17277.52977.06909.18423.13819.37998.21881.59879l.29943.81767h-1.62382Z"/><path class="d" d="M66.07622,15.17875c0-.76925-.01743-1.43446-.05342-1.99397-.00597-.09461-.02369-.18289-.03121-.27673l1.6681,2.64013h.78555l1.72504-2.66973c-.01026.12448-.03261.24721-.04035.37211-.03599.57131-.05398,1.21404-.05398,1.92817v2.2262h2.274v-8.33293h-1.98834l-2.26535,3.63592-2.23428-3.63592h-2.05919v8.33293h2.27344v-2.2262Z"/><polygon class="d" points="80.70651 14.36958 83.7773 14.36958 83.7773 12.47683 80.70651 12.47683 80.70651 11.10759 84.24177 11.10759 84.24177 9.07202 80.70651 9.07202 79.46829 9.07202 78.34929 9.07202 78.34929 17.40495 80.70651 17.40495 80.70651 14.36958"/><path class="d" d="M89.17495,9.06871h-1.91166l-3.31667,8.33778h2.29171l.51824-1.38196h2.85599l.50672,1.38196h2.34935l-3.29368-8.33778ZM87.3669,14.35468l.29943-.81767c.08062-.21881.16124-.42609.21881-.61032.06909-.1843.13819-.357.1843-.51824.04604-.12666.08062-.25339.11513-.38005.04604.12666.08062.25339.11513.38005.05764.17277.1152.34547.1843.52977.05757.18423.12666.37998.20728.59879l.31096.81767h-1.63535Z"/><polygon class="d" points="99.30054 15.36937 95.66799 15.36937 95.66799 9.07202 93.3119 9.07202 93.3119 17.40495 99.30054 17.40495 99.30054 15.36937"/><path class="d" d="M104.69883,9.06871h-1.9002l-3.31667,8.33778h2.29171l.50672-1.38196h2.86752l.50672,1.38196h2.34935l-3.30514-8.33778ZM102.90231,14.35468l.29936-.81767c.08062-.21881.14972-.42609.21881-.61032.06909-.1843.12673-.357.1843-.51824.04604-.12666.08062-.25339.11513-.38005.03458.12666.08062.25339.1152.38005.05757.17277.11513.34547.18423.52977.05757.18423.12666.37998.20728.59879l.29943.81767h-1.62375Z"/><path class="d" d="M114.13059,14.23954c.02298-.01153.04604-.02305.06909-.03458.44908-.24187.79462-.57581,1.04794-1.0019.24187-.42609.36853-.92128.36853-1.47411,0-.51817-.12666-.97885-.36853-1.37043-.25332-.40304-.59886-.714-1.04794-.94427-.43762-.23034-.94434-.34554-1.50862-.34554h-3.84644v8.33778h2.21109v-2.83301h.65643l1.60077,2.83301h2.64871l-1.83103-3.16695ZM113.20924,12.40844c-.08055.14972-.18423.26485-.32242.34547s-.31096.12666-.51824.12666h-1.31286v-1.91166h1.22071c.23034,0,.42609.03451.57581.10368.14972.08055.27645.18423.34554.32242.08055.13819.12666.31096.12666.49519,0,.20728-.03458.36853-.1152.51824Z"/><polygon class="d" points="123.80956 15.39299 120.07861 15.39299 123.6791 10.59589 123.6791 9.07202 117.27435 9.07202 117.27435 11.20319 120.49353 11.20319 116.96508 15.86927 116.96508 17.40495 123.80956 17.40495 123.80956 15.39299"/><path class="d" d="M41.40919,24.32535c-.16644-.13664-.36832-.25529-.60449-.35482-.23673-.09897-.50271-.17825-.79792-.2373-.17769-.03768-.33626-.08097-.47572-.12933-.14002-.04836-.25417-.10459-.34301-.16926-.08828-.06467-.15689-.13833-.20524-.22155s-.07254-.17882-.07254-.28622c0-.13945.04049-.25923.1209-.35876s.19231-.176.33458-.22999c.14227-.05342.3104-.08041.50383-.08041.17207,0,.3357.02812.49146.08491.15576.05623.30084.13945.43579.24967.13383.11021.25473.24854.36269.41499l.69333-.6849c-.12371-.20974-.28116-.38856-.47178-.53645-.19062-.14733-.41105-.25923-.66128-.33458-.24967-.07479-.53307-.11246-.85022-.11246-.27947,0-.54038.03992-.78218.1209-.2418.08041-.45379.19344-.63654.33851s-.3267.31715-.43129.51564c-.10515.19906-.15745.41667-.15745.65341,0,.23617.03486.44704.10515.6326.06973.18556.17994.35201.33008.4999.1507.14789.33626.2716.55669.37056.21986.09953.47797.17882.77374.23786.15576.03261.29803.06748.42736.10515.12877.03768.24404.08322.34639.13664.10178.05398.18781.1119.2581.17376.06973.06185.12202.13158.15689.20918.03486.07816.05286.16251.05286.25417,0,.12877-.0433.24292-.12933.34245s-.20412.17769-.35482.23392c-.15014.05623-.31715.08435-.49933.08435-.31715,0-.60224-.06973-.85472-.20918-.25248-.14002-.51058-.3925-.77374-.758l-.68546.77374c.17207.23673.36832.43804.58874.60505.21986.16644.46728.29128.74169.3745.27385.08322.57468.12483.90251.12483.42455,0,.79567-.07085,1.11282-.21368.31658-.14227.56288-.34639.73719-.61236.17488-.26597.26204-.58424.26204-.95537,0-.2148-.04274-.40993-.12877-.58424-.08603-.17488-.21255-.33064-.379-.46785Z"/><polygon class="d" points="42.58611 22.4028 44.19883 22.4028 44.19883 27.07844 45.24642 27.07844 45.24642 22.4028 46.9075 22.4028 46.9075 21.43562 42.58611 21.43562 42.58611 22.4028"/><path class="d" d="M52.73778,23.09543c-.13826-.357-.33401-.66789-.58734-.92128-.25339-.26485-.5413-.47213-.88677-.62185-.34547-.13819-.72553-.21881-1.12856-.21881-.40311,0-.78309.08062-1.12863.21881-.33394.14972-.6449.357-.89823.61032-.25339.26492-.44915.57581-.58734.92135-.13819.357-.20728.74851-.20728,1.16308,0,.42616.06909.80615.20728,1.16315s.33394.65643.58734.92135c.25332.26485.56428.46061.89823.61032.34554.14972.72553.21881,1.12863.21881.40304,0,.78309-.06909,1.12856-.21881s.63338-.34547.88677-.61032c.25332-.26492.44908-.57581.58734-.93288.14965-.357.21881-.73698.21881-1.15162,0-.41457-.06916-.80608-.21881-1.15162ZM51.75886,25.00715c-.09215.23034-.21881.43762-.36853.61032-.16117.17277-.34547.31096-.55275.40311-.21881.09215-.44915.13819-.70247.13819-.25339,0-.49519-.04604-.70254-.13819-.21874-.09215-.40304-.23034-.56428-.40311-.14972-.1727-.27638-.36846-.357-.61032-.08062-.23034-.12666-.48366-.12666-.76011,0-.27638.04604-.5297.12666-.76004s.20728-.43762.357-.61032c.16124-.17277.34554-.29943.56428-.40311.20735-.09215.44915-.13819.70254-.13819.25332,0,.48366.04604.70247.13819.20728.10368.39158.23034.55275.41457.14972.17277.27638.36853.36853.59886.08062.23034.12666.48366.12666.76004,0,.27645-.04604.52977-.12666.76011Z"/><polygon class="d" points="55.13753 21.43562 54.08993 21.43562 54.08993 27.07844 57.7416 27.07844 57.7416 26.11126 55.13753 26.11126 55.13753 21.43562"/><path class="d" d="M61.50158,21.43716h-.99038l-2.19963,5.64289h1.04801l.49519-1.28981h2.25713l.48373,1.28981h1.08252l-2.17658-5.64289ZM60.20025,24.88049l.36853-.99045c.03451-.10361.08062-.21881.12666-.357s.09215-.27638.13819-.42609c.05757-.13819.09215-.27638.13819-.41457.01153-.01153.01153-.02305.01153-.03451.04604.13819.09215.2879.14972.44908.04604.16124.09215.32249.13819.46068s.09215.24187.11513.29943l.38005,1.01343h-1.56619Z"/><path class="d" d="M67.77792,24.83438c.05757-.02298.11513-.03451.1727-.06909.27638-.14972.49519-.36853.65643-.6449.17277-.26485.25339-.56428.25339-.8867,0-.33401-.08062-.6449-.25339-.90982-.16124-.27638-.38005-.49519-.65643-.6449-.2879-.16124-.58734-.2418-.93281-.2418h-2.45295v5.64289h1.02496v-2.0729h1.08252l1.17467,2.0729,1.23224.01153-1.30134-2.2572ZM67.43238,23.98219c-.11513.08062-.25332.1152-.40304.1152h-1.43952v-1.71597h1.2553c.18423,0,.357.03458.49519.1152.14972.06909.26485.1727.34547.29943.08062.12666.11513.2879.11513.46061,0,.16124-.03451.29943-.09208.42609-.06909.12673-.16124.23034-.27645.29943Z"/><path class="d" d="M73.58199,24.32535c-.16644-.13664-.36832-.25529-.60449-.35482-.23673-.09897-.50271-.17825-.79792-.2373-.17769-.03768-.33626-.08097-.47572-.12933-.14002-.04836-.25417-.10459-.34301-.16926-.08828-.06467-.15689-.13833-.20524-.22155s-.07254-.17882-.07254-.28622c0-.13945.04049-.25923.1209-.35876s.19231-.176.33458-.22999c.14227-.05342.3104-.08041.50383-.08041.17207,0,.3357.02812.49146.08491.15576.05623.30084.13945.43579.24967.13383.11021.25473.24854.36269.41499l.69333-.6849c-.12371-.20974-.28116-.38856-.47178-.53645-.19062-.14733-.41105-.25923-.66128-.33458-.24967-.07479-.53307-.11246-.85022-.11246-.27947,0-.54038.03992-.78218.1209-.2418.08041-.45379.19344-.63654.33851s-.3267.31715-.43129.51564c-.10515.19906-.15745.41667-.15745.65341,0,.23617.03486.44704.10515.6326.06973.18556.17994.35201.33008.4999.1507.14789.33626.2716.55669.37056.21986.09953.47797.17882.77374.23786.15576.03261.29803.06748.42736.10515.12877.03768.24404.08322.34639.13664.10178.05398.18781.1119.2581.17376.06973.06185.12202.13158.15689.20918.03486.07816.05286.16251.05286.25417,0,.12877-.0433.24292-.12933.34245s-.20412.17769-.35482.23392c-.15014.05623-.31715.08435-.49933.08435-.31715,0-.60224-.06973-.85472-.20918-.25248-.14002-.51058-.3925-.77374-.758l-.68546.77374c.17207.23673.36832.43804.58874.60505.21986.16644.46728.29128.74169.3745.27385.08322.57468.12483.90251.12483.42455,0,.79567-.07085,1.11282-.21368.31658-.14227.56288-.34639.73719-.61236.17488-.26597.26204-.58424.26204-.95537,0-.2148-.04274-.40993-.12877-.58424-.08603-.17488-.21255-.33064-.379-.46785Z"/><polygon class="d" points="74.75835 22.4028 76.37106 22.4028 76.37106 27.07844 77.41866 27.07844 77.41866 22.4028 79.07973 22.4028 79.07973 21.43562 74.75835 21.43562 74.75835 22.4028"/><path class="d" d="M85.23819,24.74877c-.03768.14002-.0686.2536-.09278.34245s-.04161.1642-.0523.22605c-.01005.05806-.02003.11724-.03008.17727-.02495-.10108-.05005-.20229-.08294-.3066-.04274-.1372-.09109-.28059-.14508-.43129l-.92726-2.43426h-.89464l-.95087,2.43426c-.03261.09166-.06354.1895-.09278.29409-.0298.10515-.06354.23561-.10122.39137-.00752.03114-.01792.07289-.0265.10789-.00478-.02776-.00836-.05096-.01343-.07978-.02193-.1209-.04611-.24292-.07254-.36663-.02699-.12371-.05679-.23673-.08885-.33851l-.99979-3.32946h-1.09595l1.75723,5.64282h.76587l1.32172-3.30015,1.37851,3.30015h.758l1.76567-5.64282h-1.08864l-.99136,3.31315Z"/><path class="d" d="M93.21715,23.09543c-.13819-.357-.33394-.66789-.58734-.92128-.25332-.26485-.55275-.47213-.89823-.62185-.34547-.13819-.714-.21881-1.12863-.21881-.40304,0-.77157.08062-1.11704.21881-.34547.14972-.6449.357-.8983.61032-.25332.26492-.44908.57581-.58727.92135-.14972.357-.21881.74851-.21881,1.16308,0,.42616.06909.80615.21881,1.16315.13819.357.33394.65643.58727.92135.25339.26485.55282.46061.8983.61032s.714.21881,1.11704.21881c.41464,0,.78316-.06909,1.12863-.21881s.6449-.34547.89823-.61032c.25339-.26492.44915-.57581.58734-.93288.13819-.357.20728-.73698.20728-1.15162,0-.41457-.06909-.80608-.20728-1.15162ZM92.22677,25.00715c-.08062.23034-.20728.43762-.357.61032-.16124.17277-.34547.31096-.55275.40311-.21881.09215-.44915.13819-.71407.13819-.25332,0-.48366-.04604-.70247-.13819-.20728-.09215-.39151-.23034-.55275-.40311-.14972-.1727-.27638-.36846-.357-.61032-.09215-.23034-.13819-.48366-.13819-.76011,0-.27638.04604-.5297.13819-.76004.08062-.23034.20728-.43762.357-.61032.16124-.17277.34547-.29943.55275-.40311.21881-.09215.44915-.13819.70247-.13819.26492,0,.49526.04604.71407.13819.20728.10368.39151.23034.55275.41457.14972.17277.27638.36853.357.59886.09215.23034.13819.48366.13819.76004,0,.27645-.04604.52977-.13819.76011Z"/><path class="d" d="M101.19786,24.70772c-.10361-.19576-.25332-.36853-.43762-.50672-.13819-.09215-.31089-.14972-.47213-.19576.20728-.09215.39151-.20728.51824-.36853.16117-.21881.25332-.48366.25332-.79462,0-.29943-.06909-.55275-.20728-.76004-.12666-.21881-.32242-.38005-.57581-.48373-.25332-.10361-.56428-.16117-.94434-.16117h-2.39539v5.64289h2.47601c.29943,0,.56428-.03451.80615-.11513.23034-.06909.43762-.17277.61032-.31096.17277-.13819.29943-.32242.39158-.52977.09215-.20728.12666-.44908.12666-.72553,0-.25332-.04604-.48366-.14972-.69094ZM97.96181,22.38143h1.19773c.27638,0,.49519.05764.63338.1843.14972.11513.21881.2879.21881.49519,0,.13819-.03458.25332-.09215.357-.06909.10368-.16124.18423-.27638.24187-.1152.05757-.24187.09208-.40311.09208h-1.27828v-1.37043ZM100.18443,25.79025c-.06909.11513-.1727.19576-.31089.25339-.13819.05757-.31096.09208-.50672.09208h-1.40501v-1.48556h1.37043c.19576,0,.36853.03451.51824.08062.13819.05757.25332.14972.33394.25332.06909.10368.1152.23034.1152.38005,0,.16124-.03458.29943-.1152.42609Z"/><path class="d" d="M106.05281,24.83761c0,.25248-.05736.47684-.17319.67309s-.27216.35313-.47122.47122c-.19906.11865-.42174.17769-.66915.17769-.22605,0-.43523-.05904-.62867-.17769-.19344-.11809-.34863-.27497-.46335-.47122-.11584-.19625-.17432-.42061-.17432-.67309v-3.41043h-1.05603v3.48297c0,.42455.10122.80467.30252,1.14037.20131.33626.47684.59943.8266.79005s.74675.28622,1.19323.28622c.45098,0,.85134-.09559,1.2011-.28622.34863-.19062.62417-.45379.8266-.79005.20131-.3357.3014-.71583.3014-1.14037v-3.48297h-1.01554v3.41043Z"/><path class="d" d="M113.28986,23.10695c-.12666-.33394-.29943-.63338-.54123-.8867-.24187-.25339-.52977-.44915-.85219-.58734-.33401-.12666-.70254-.19576-1.11711-.19576h-2.25713v5.64289h2.25713c.41457,0,.78309-.06909,1.11711-.20728.33394-.12666.62185-.32249.85219-.57581.2418-.24187.41457-.54123.54123-.88677.12673-.34547.19583-.73698.19583-1.15162,0-.42609-.06909-.80608-.19583-1.15162ZM112.31101,25.03021c-.08062.23027-.1843.41457-.33394.57581-.14972.16117-.32249.2879-.52977.37998-.20728.08062-.43762.12673-.70247.12673h-1.17467v-3.70825h1.17467c.26485,0,.49519.04604.70247.12666.20728.09215.38005.20728.52977.36853.14965.16124.25332.357.33394.58734.06909.23034.11513.48366.11513.77157s-.04604.5413-.11513.77164Z"/><path class="d" d="M119.66988,23.09543c-.13819-.357-.33401-.66789-.58734-.92128-.25339-.26485-.55282-.47213-.8983-.62185-.34547-.13819-.72553-.21881-1.12856-.21881s-.77157.08062-1.11711.21881c-.34547.14972-.6449.357-.89823.61032-.26485.26492-.46068.57581-.59886.92135-.13819.357-.20728.74851-.20728,1.16308,0,.42616.06909.80615.20728,1.16315s.33401.65643.59886.92135c.25332.26485.55275.46061.89823.61032.34554.14972.71407.21881,1.11711.21881s.78309-.06909,1.12856-.21881.6449-.34547.8983-.61032c.25332-.26492.44915-.57581.58734-.93288.13819-.357.20728-.73698.20728-1.15162,0-.41457-.06909-.80608-.20728-1.15162ZM118.67943,25.00715c-.09208.23034-.20728.43762-.36846.61032-.14972.17277-.33401.31096-.55282.40311-.20728.09215-.44915.13819-.70247.13819-.25339,0-.48366-.04604-.70247-.13819s-.40311-.23034-.55282-.40311c-.16117-.1727-.27638-.36846-.36846-.61032-.08062-.23034-.12673-.48366-.12673-.76011,0-.27638.04611-.5297.12673-.76004.09208-.23034.20728-.43762.36846-.61032.14972-.17277.33401-.29943.55282-.40311.21881-.09215.44908-.13819.70247-.13819.25332,0,.49519.04604.70247.13819.21881.10368.40311.23034.55282.41457.16117.17277.27638.36853.36846.59886.09215.23034.13819.48366.13819.76004,0,.27645-.04604.52977-.13819.76011Z"/><path class="d" d="M126.02058,24.74877c-.03824.14002-.0686.2536-.09222.34245-.02474.08885-.04274.1642-.05286.22605-.01054.05785-.0201.11689-.03051.17671-.02467-.10094-.04948-.20187-.08196-.30604-.04386-.1372-.09222-.28059-.14508-.43129l-.92782-2.43426h-.89408l-.95144,2.43426c-.03261.09166-.06298.1895-.09334.29409-.02924.10515-.06298.23561-.10009.39137-.00773.03142-.0182.07352-.02692.10881-.00485-.02805-.00843-.05152-.01357-.08069-.02137-.1209-.04611-.24292-.0731-.36663s-.05623-.23673-.08772-.33851l-.99979-3.32946h-1.09651l1.75667,5.64282h.76587l1.32228-3.30022,1.37908,3.30022h.758l1.76454-5.64282h-1.08752l-.99192,3.31315Z"/><polygon class="d" points="130.04337 21.43562 128.99522 21.43562 128.99522 27.07844 132.64689 27.07844 132.64689 26.11126 130.04337 26.11126 130.04337 21.43562"/><path class="d" d="M136.40287,21.43716h-.97885l-2.19963,5.64289h1.04801l.48366-1.28981h2.2572l.48366,1.28981h1.09405l-2.1881-5.64289ZM135.10153,24.88049l.38005-.99045c.03451-.10361.06909-.21881.11513-.357.04611-.13819.09215-.27638.14972-.42609.04611-.13819.09215-.27638.13819-.41457v-.03451c.04611.13819.09215.2879.14972.44908.04611.16124.10368.32249.14972.46068.04611.13819.08062.24187.10368.29943l.37998,1.01343h-1.56619Z"/><path class="d" d="M143.35222,23.12818c0,.23111.00225.45041.00787.65735.0045.20693.01237.4043.02024.59212.00787.18838.01799.36832.03149.54038s.02812.33739.04499.49596c.00471.04752.0116.09215.01687.13889l-3.05674-4.11726h-.94244v5.64282h1.03916v-2.18459c0-.07535-.00112-.15464-.00337-.23786-.00337-.08322-.00787-.176-.01574-.27835-.009-.10178-.01799-.22942-.02924-.38294-.01012-.15295-.02474-.3357-.04386-.54769-.01047-.11668-.02228-.2496-.035-.39278l3.04563,4.0242h.95931v-5.64282h-1.03916v1.69257Z"/><polygon class="d" points="146.93866 26.127 146.93866 24.65992 149.18792 24.65992 149.18792 23.7248 146.93866 23.7248 146.93866 22.38649 149.59953 22.38649 149.59953 21.43562 145.90738 21.43562 145.90738 27.07844 149.63102 27.07844 149.63102 26.127 146.93866 26.127"/><path class="e" d="M26.33345,3.75633c-1.02923-.7201-.94914-2.42963-.89935-2.93834.02082-.20815-.04782-.41687-.1879-.57158-.14177-.1564-.34542-.24641-.55808-.24641h-3.0908c-.40843,0-.77748.20647-.98676.55358-.45583.7566-1.77598,2.50951-4.1964,2.52541H6.63616C2.97716,3.07898,0,6.0612,0,9.72695v16.78673c0,2.92259,1.95664,5.53801,4.74421,6.35543.58283.18678,1.2191.28129,1.89195.28129h16.78729c3.66575,0,6.64797-2.97716,6.64797-6.63672V9.72695c0-2.52428-1.46671-4.85806-3.73797-5.97063ZM21.86031,1.15215c.44621,0,1.35783,0,1.92026,0,.25962,0,.47262.2024.48363.46179.0412.96983.31539,2.34415,1.43431,3.10721l.08045.04163c1.9077.91025,3.1403,2.85902,3.1403,4.96418l-.00325.01662c-.14765.75522-1.00776,1.12467-1.65695.71152-.37266-.23716-.78271-.51422-1.17687-.81308-1.9949-1.52233-2.84383-2.66436-3.52567-3.58249-.6509-.87593-1.21348-1.63316-2.43877-2.31725h0c-.30852-.17198-.35077-.60418-.07576-.82584.68417-.55145,1.1525-1.15364,1.41538-1.54538.09096-.13554.23971-.21889.40294-.21889ZM1.15216,26.51369V9.72695c0-3.0306,2.46015-5.49581,5.484-5.49581h.08662c.73535,0,1.038.92814.45425,1.37532-.15697.12025-.31018.24337-.45929.36923-3.43116,2.86577-4.10344,5.49638-4.06293,7.19986.02925,1.10434.3443,1.77662.67791,2.48771.30885.65934.6284,1.34062.80786,2.53778.22784,1.54934-.00169,2.47028-.29254,3.63706-.18565.74598-.39662,1.59153-.51026,2.74875-.15046,1.62395-.13045,3.12347.05178,4.46504.10025.73804-.87081,1.12704-1.29016.51149-.60024-.88107-.94723-1.93602-.94723-3.0497ZM6.62238,31.99823c-.78022-.0011-1.46845-.51075-1.69488-1.25739-.49809-1.64243-.65674-3.73595-.43983-6.07916.10183-1.03514.29367-1.80306.47819-2.5451.29592-1.1876.57552-2.30882.31448-4.08487-.20422-1.36481-.57608-2.15804-.90462-2.85733-.30492-.6509-.54626-1.1651-.56877-2.02753-.03488-1.4492.57045-3.71582,3.65112-6.28848.11808-.09962.23894-.1974.36241-.29323,2.00404-1.55548,4.50363-2.33401,7.04049-2.33401h1.52181v.00281c.01062,0,.01948-.00274.0301-.00281l1.84951-.00003c.05447,0,.10947.0087.16112.02602.40973.13748.79157.30048,1.13277.49101,1.00926.5637,1.45651,1.16566,2.07535,1.99884.72516.97551,1.62753,2.19011,3.75295,3.81202,1.27311.96538,2.06409,1.38169,2.69924,1.71586l.00939.00494c.50798.26729.82604.79404.82604,1.36805v10.7891c0,.77514-.61523,1.56214-1.36882,1.74364-3.16104.76129-6.13398,3.25054-7.07924,5.52935-.06664.16065-.27218.28831-.4461.28831H6.63616s-.01378-.00003-.01378-.00003ZM23.42345,31.99825h0c-.83621,0-1.2962-.9928-.7375-1.61497,1.10959-1.23567,2.7658-2.35662,4.51097-2.91559.81865-.26221,1.54705.57247,1.18551,1.35236-.86856,1.8736-2.75614,3.1782-4.95897,3.1782Z"/><path class="e" d="M20.03844,26.195c1.33387-.91081,2.36451-1.17185,3.2742-1.40194,1.06215-.26891,2.06522-.52263,3.05536-1.70686.95075-1.13528,1.51896-2.68124,1.5589-4.25589l-.00056-.46694c-.0315-.71504-.1699-1.37775-.41406-1.97408-.24866-.59127-.61096-1.0914-2.84833-3.11499-2.62273-2.38645-3.93973-3.58418-5.30848-4.38079-2.19968-1.28661-3.78164-2.21655-5.98863-2.07928-3.35296.20928-6.65585,2.85677-6.79593,5.44743-.04613.82361.22841,1.33331.54682,1.92401.28748.53389.61377,1.13922.86412,2.24018.34148,1.48802.2481,2.65199.14008,4.00048-.19128,2.44327-.67115,3.89472-1.02164,4.95461-.37749,1.14203-.65034,1.96733-.18453,3.02329.27285.61658.73529,1.16903,1.37381,1.64104.91644.67847,2.09054,1.03739,3.39515,1.03739h1.0689c1.98421,0,3.84465-.96819,4.97656-2.58954.50069-.71729,1.12684-1.49195,2.30825-2.29813ZM16.78505,27.83378c-.91588,1.31305-2.42302,2.09672-4.03143,2.09672h-1.0689c-.73641,0-1.80418-.14064-2.70993-.81124-.47594-.35217-.81405-.74935-1.00476-1.18085-.27623-.62502-.13952-1.0959.22391-2.19574.36905-1.11559.87424-2.64411,1.07677-5.22521.11083-1.38225.21547-2.68799-.1654-4.34816-.28523-1.2523-.68297-1.99096-.97326-2.53047-.28298-.52488-.43881-.81405-.41124-1.31418.10801-1.98983,2.99347-4.19064,5.71803-4.36053.11702-.00731.23234-.01069.34598-.01069,1.68098,0,3.02216.78423,4.99006,1.93526,1.26467.73585,2.55072,1.90601,5.11495,4.23845,2.29363,2.07478,2.42921,2.39714,2.55804,2.70374.18903.46131.3021,1.00926.32686,1.55778v.427c-.03319,1.30462-.50351,2.59179-1.28999,3.5313-.75104.89787-1.46608,1.07902-2.45509,1.32937-.95244.24078-2.13779.5412-3.64043,1.56678-1.33499.91081-2.04047,1.78337-2.60417,2.59067Z"/><path class="e" d="M21.77589,20.0869c.84893-.43206,1.58253-.80505,1.52346-1.61685-.05007-.69872-.64528-.95751-1.27536-1.23148-.42081-.1834-.94457-.41068-1.53809-.8163-1.18366-.80786-1.70292-1.6821-2.16142-2.45284-.50238-.84612-.97776-1.64497-2.12373-1.96846-1.74286-.49451-3.95998.4495-4.39148,1.86719-.20028.65765.06132,1.13641.33755,1.64272.20197.36961.45287.82924.63009,1.52908h.00056c.37018,1.4582.11589,2.72625-.00675,3.33664-.2436,1.21517-.69084,1.99602-1.05033,2.6233-.38537.67228-.74935,1.30799-.3713,2.00165.38143.69872,1.32037,1.01376,2.33582,1.01376.63909,0,1.30912-.12489,1.88801-.35836,1.09477-.4405,1.5364-1.14259,2.0039-1.88632.36849-.58621.78648-1.25061,1.6326-2.01121.94288-.84724,1.843-1.30518,2.56648-1.67254ZM18.43925,20.90208c-.96594.86862-1.4492,1.63766-1.83794,2.25537-.44275.70435-.70997,1.12965-1.45876,1.43063-1.20391.48382-2.56535.25822-2.78194-.13839-.06638-.12208.09339-.41293.35949-.87706.37974-.66272.89956-1.57015,1.18029-2.96984.13896-.69309.42868-2.13442-.00675-3.84634-.21322-.84105-.51476-1.39407-.73529-1.79743-.2481-.454-.30042-.57833-.24697-.75498.20478-.67003,1.72317-1.44526,2.97659-1.09477.67228.19015.95807.62784,1.44639,1.44864.49338.83093,1.10771,1.86438,2.50178,2.81626.68353.46638,1.28718.7291,1.72824.92094.24247.10576.54964.24697.59464.21659-.07032.1232-.53332.35892-.90519.54795-.7426.37749-1.75918.89393-2.81457,1.84244Z"/></g></svg>